<svg width="190" height="79" viewBox="0 0 190 79" fill="none" xmlns="http://www.w3.org/2000/svg">
<g clip-path="url(#clip0_5464_1285)">
<path d="M38.9665 1.2904C38.871 0.382339 38.7276 0 38.3931 0C38.0586 0 37.8675 0.334547 37.6763 0.764681L23.6277 30.7785L9.00564 0.716889C8.76672 0.191171 8.57558 0 8.28887 0C8.00217 0 7.81103 0.334547 7.76324 0.860268L4.32276 32.0211C4.13162 33.8372 3.98827 35.7011 2.41138 35.9879C1.69461 36.1312 1.36012 36.1312 0.977845 36.1312C0.738923 36.1312 0.5 36.2268 0.5 36.3702C0.5 36.7048 0.834492 36.8003 1.31234 36.8003C2.60252 36.8003 4.89617 36.657 5.32623 36.657C5.70851 36.657 8.00217 36.8003 9.77019 36.8003C10.3436 36.8003 10.6303 36.7048 10.6303 36.3702C10.6303 36.2268 10.4392 36.1312 10.248 36.1312C9.96133 36.1312 9.24456 36.0835 8.43223 35.8923C7.71546 35.7489 7.18983 35.1276 7.18983 34.4107C7.18983 33.5982 7.18983 32.738 7.23761 31.9733L9.14899 9.79749H9.34013C9.86576 11.0879 15.2176 22.5581 15.6477 23.4184C15.8866 23.8963 19.9961 32.1645 21.2385 34.5063C22.1464 36.2268 22.3853 36.7048 22.7198 36.7048C23.1499 36.7048 23.2932 36.2746 24.2967 34.1717L36.0039 9.31957H36.1472L38.4409 33.9806C38.5365 34.8408 38.4887 35.6533 38.2498 35.7011C38.0108 35.7489 37.9153 35.8445 37.9153 36.0357C37.9153 36.2746 38.1542 36.418 39.2532 36.5136C41.0213 36.657 46.182 36.8003 47.2332 36.8003C47.8067 36.8003 48.2367 36.657 48.2367 36.3702C48.2367 36.179 48.0934 36.1312 47.8544 36.1312C47.3766 36.1312 46.1342 36.1312 44.7484 35.7011C42.6937 35.032 42.3592 32.3556 42.1681 30.6351L38.9665 1.2904Z" fill="white"/>
<path d="M53.7226 18.6869C53.7226 27.2896 59.17 37.4694 72.263 37.4694C83.779 37.4694 91.329 28.6278 91.329 17.9222C91.329 6.78656 83.3012 0 72.5497 0C59.3612 0 53.7226 10.9445 53.7226 18.6869ZM58.2621 17.3487C58.2621 6.88214 64.2352 1.62495 72.2152 1.62495C79.7651 1.62495 86.7417 7.7902 86.7417 19.2604C86.7417 33.1681 77.8538 35.6533 73.5532 35.6533C64.9519 35.6533 58.2621 28.4844 58.2621 17.3487Z" fill="white"/>
<path d="M114.155 2.72418L120.176 2.81977C124.764 2.91535 125.91 4.01458 126.054 5.44836L126.102 5.97408C126.149 6.64318 126.245 6.78656 126.484 6.78656C126.675 6.78656 126.818 6.59539 126.818 6.16525C126.818 5.63953 126.962 2.34184 126.962 0.90806C126.962 0.621305 126.962 0.334547 126.723 0.334547C126.532 0.334547 126.102 0.477926 125.385 0.57351C124.62 0.716889 123.521 0.812473 121.992 0.812473H104.073C103.499 0.812473 101.684 0.716889 100.298 0.57351C99.0077 0.477926 98.5299 0 98.1954 0C98.0043 0 97.8131 0.621305 97.7176 0.90806C97.622 1.2904 96.6663 5.40057 96.6663 5.87849C96.6663 6.16525 96.7619 6.30863 96.9052 6.30863C97.0964 6.30863 97.2397 6.21304 97.3831 5.8307C97.5264 5.49616 97.6698 5.16161 98.1954 4.34913C98.96 3.20211 100.107 2.86756 103.069 2.81977L110.142 2.72418V22.9405C110.142 27.5286 110.142 31.3042 109.903 33.3115C109.711 34.6975 109.473 35.7489 108.517 35.9401C108.087 36.0357 107.513 36.1312 107.083 36.1312C106.797 36.1312 106.701 36.2746 106.701 36.418C106.701 36.7048 106.94 36.8003 107.466 36.8003C108.899 36.8003 111.91 36.657 112.148 36.657C112.387 36.657 115.398 36.8003 118.026 36.8003C118.552 36.8003 118.791 36.657 118.791 36.418C118.791 36.2746 118.695 36.1312 118.408 36.1312C117.978 36.1312 116.927 36.0357 116.258 35.9401C114.824 35.7489 114.538 34.6975 114.394 33.3115C114.155 31.3042 114.155 27.5286 114.155 22.9405V2.72418Z" fill="white"/>
<path d="M139.405 22.9405C139.405 27.5286 139.405 31.3042 139.166 33.3115C138.975 34.6975 138.736 35.7489 137.78 35.9401C137.35 36.0357 136.777 36.1312 136.347 36.1312C136.06 36.1312 135.965 36.2746 135.965 36.418C135.965 36.7048 136.203 36.8003 136.729 36.8003C137.446 36.8003 138.545 36.7048 139.501 36.7048C140.504 36.657 141.316 36.657 141.412 36.657C142.129 36.657 143.276 36.7048 145.139 36.8003C147.003 36.8481 149.631 36.9437 153.215 36.9437C155.078 36.9437 155.461 36.9437 155.795 35.7011C156.034 34.6975 156.416 31.4476 156.416 31.0652C156.416 30.7307 156.416 30.3483 156.13 30.3483C155.891 30.3483 155.795 30.5395 155.7 31.0652C155.365 33.0247 154.792 33.9806 153.549 34.5063C152.307 35.032 150.204 35.032 148.962 35.032C144.279 35.032 143.562 34.4107 143.419 31.113C143.371 30.1094 143.419 24.5654 143.419 22.9405V18.7347C143.419 18.5435 143.515 18.4002 143.753 18.4002C144.566 18.4002 149.296 18.4958 150.587 18.6391C152.45 18.8303 152.88 19.6428 153.071 20.3119C153.263 20.9332 153.263 21.4111 153.263 21.889C153.263 22.128 153.358 22.3192 153.597 22.3192C153.932 22.3192 153.932 21.7935 153.932 21.4111C153.932 21.0766 154.027 19.3082 154.123 18.3524C154.266 16.7752 154.505 15.9627 154.505 15.676C154.505 15.3892 154.409 15.2936 154.266 15.2936C154.075 15.2936 153.884 15.5326 153.549 15.915C153.119 16.3929 152.45 16.4885 151.303 16.5841C150.204 16.6796 144.327 16.6796 143.706 16.6796C143.467 16.6796 143.419 16.5363 143.419 16.2017V3.01094C143.419 2.67639 143.515 2.53301 143.706 2.53301C144.231 2.53301 149.44 2.5808 150.252 2.67639C152.832 2.96314 153.31 3.53666 153.645 4.30134C153.884 4.87485 153.932 5.68733 153.932 6.02187C153.932 6.40422 154.027 6.64318 154.314 6.64318C154.505 6.64318 154.601 6.35642 154.648 6.11746C154.744 5.54395 154.839 3.44107 154.887 2.96314C155.031 1.62495 155.269 1.05144 155.269 0.716889C155.269 0.477926 155.222 0.286755 155.078 0.286755C154.839 0.286755 154.648 0.477926 154.409 0.525718C154.027 0.621305 153.263 0.716889 152.355 0.764681C151.256 0.812473 141.746 0.812473 141.412 0.812473L139.453 0.716889C138.402 0.669097 137.111 0.669097 136.012 0.669097C135.487 0.669097 135.248 0.764681 135.248 1.05144C135.248 1.24261 135.439 1.33819 135.63 1.33819C136.06 1.33819 136.872 1.38599 137.255 1.48157C138.832 1.81612 139.214 2.5808 139.309 4.20575C139.405 5.73512 139.405 7.07331 139.405 14.529V22.9405Z" fill="white"/>
<path d="M174.974 14.529C174.974 7.07331 174.974 5.73512 175.069 4.20575C175.165 2.53301 175.547 1.72054 176.933 1.48157C177.506 1.38599 178.175 1.33819 178.51 1.33819C178.701 1.33819 178.892 1.24261 178.892 1.05144C178.892 0.764681 178.653 0.669097 178.127 0.669097C176.694 0.669097 173.205 0.812473 172.967 0.812473C172.728 0.812473 169.717 0.669097 167.567 0.669097C167.041 0.669097 166.802 0.764681 166.802 1.05144C166.802 1.24261 166.994 1.33819 167.185 1.33819C167.615 1.33819 168.427 1.38599 168.809 1.48157C170.386 1.81612 170.768 2.5808 170.864 4.20575C170.96 5.73512 170.96 7.07331 170.96 14.529V22.9405C170.96 27.5286 170.96 31.3042 170.721 33.3115C170.53 34.6975 170.291 35.7489 169.335 35.9401C168.905 36.0357 168.331 36.1312 167.901 36.1312C167.615 36.1312 167.519 36.2746 167.519 36.418C167.519 36.7048 167.758 36.8003 168.284 36.8003C169 36.8003 170.052 36.7525 171.007 36.7048C171.963 36.7048 172.775 36.657 172.967 36.657C174.352 36.657 175.834 36.7048 177.841 36.8003C179.848 36.8481 182.332 36.9437 185.773 36.9437C188.305 36.9437 188.449 36.7525 188.783 35.6533C189.166 34.2673 189.5 31.3998 189.5 30.8741C189.5 30.3483 189.452 30.1572 189.213 30.1572C188.927 30.1572 188.831 30.3961 188.783 30.7785C188.64 31.6865 188.162 32.8813 187.541 33.646C186.394 35.032 184.292 35.0798 181.759 35.0798C178.032 35.0798 176.789 34.7453 176.025 33.9806C175.165 33.1203 174.974 30.0616 174.974 23.0361V14.529Z" fill="white"/>
<path d="M12.5952 46.1123C11.8501 44.1748 11.2541 42.6348 11.2541 41.989C11.2541 41.6412 11.3534 41.2438 11.8998 40.9954C12.3468 40.7967 13.2409 40.747 13.7873 40.747C14.135 40.747 14.284 40.6476 14.284 40.3992C14.284 40.1508 13.8369 40.0515 12.9429 40.0515C11.0554 40.0515 8.8202 40.2005 8.32349 40.2005C7.72745 40.2005 4.89621 40.0515 2.51202 40.0515C1.71729 40.0515 1.22058 40.1011 1.22058 40.3992C1.22058 40.5979 1.31992 40.747 1.61795 40.747C1.91597 40.747 2.76037 40.747 3.50543 40.9457C5.24391 41.4425 5.98897 41.989 7.08173 44.771L19.2511 75.2243C20.1948 77.6089 20.4432 78.3045 21.0392 78.3045C21.5359 78.3045 21.7346 77.5096 23.1254 74.5288C24.2678 72.0946 26.503 66.7292 29.5329 59.476C32.0661 53.3655 34.5496 47.404 35.096 46.013C36.4371 42.6348 37.1822 41.7902 37.8279 41.3431C38.7717 40.747 39.8644 40.747 40.2121 40.747C40.6095 40.747 40.8081 40.6476 40.8081 40.3992C40.8081 40.1508 40.5101 40.0515 39.9637 40.0515C38.5233 40.0515 36.3875 40.2005 36.0894 40.2005C35.4934 40.2005 33.2085 40.0515 31.2217 40.0515C30.427 40.0515 30.1289 40.1508 30.1289 40.4489C30.1289 40.6973 30.3773 40.747 30.6753 40.747C31.2217 40.747 31.9668 40.747 32.5628 40.9457C33.0595 41.1941 33.2085 41.6909 33.2085 42.0883C33.2085 42.5354 33.0098 43.2309 32.7615 43.9761C31.6687 47.553 25.0129 64.8911 22.132 71.5481L12.5952 46.1123Z" fill="white"/>
<path d="M55.371 54.4584C55.371 46.7085 55.371 45.3175 55.4703 43.7277C55.5697 41.989 55.967 41.1444 57.3081 40.896C57.9042 40.7967 58.2022 40.747 58.5499 40.747C58.7486 40.747 58.9473 40.6476 58.9473 40.4489C58.9473 40.1508 58.6989 40.0515 58.1525 40.0515C56.6624 40.0515 53.5332 40.2005 53.2848 40.2005C53.0365 40.2005 49.9072 40.0515 48.2681 40.0515C47.7217 40.0515 47.4733 40.1508 47.4733 40.4489C47.4733 40.6476 47.672 40.747 47.8707 40.747C48.2184 40.747 48.8641 40.7967 49.4105 40.9457C50.5033 41.1941 51 42.0386 51.0993 43.7277C51.1986 45.3175 51.1986 46.7085 51.1986 54.4584V63.202C51.1986 67.9712 51.1986 71.8958 50.9503 73.9824C50.7516 75.4231 50.5033 76.516 49.5098 76.7147C49.0628 76.8141 48.4668 76.9134 48.0197 76.9134C47.7217 76.9134 47.6224 77.0625 47.6224 77.2115C47.6224 77.5096 47.8707 77.6089 48.4171 77.6089C49.9072 77.6089 53.0365 77.4599 53.2848 77.4599C53.5332 77.4599 56.6624 77.6089 59.3943 77.6089C59.9407 77.6089 60.189 77.4599 60.189 77.2115C60.189 77.0625 60.0897 76.9134 59.7917 76.9134C59.3446 76.9134 58.2519 76.8141 57.5565 76.7147C56.0664 76.516 55.7684 75.4231 55.6193 73.9824C55.371 71.8958 55.371 67.9712 55.371 63.202V54.4584Z" fill="white"/>
<path d="M79.5323 78.3045C82.2145 78.3045 84.8967 77.7083 87.0326 76.2179C90.4599 73.7836 91.2546 70.008 91.2546 67.9712C91.2546 63.9968 89.8638 60.9167 84.0027 56.2966L82.6119 55.2036C77.8435 51.4777 76.5521 49.6892 76.5521 46.8575C76.5521 43.2309 79.2343 41.0947 82.6616 41.0947C87.2313 41.0947 88.5724 43.1813 88.8704 43.7277C89.1684 44.2742 89.4664 45.6155 89.5161 46.2117C89.5658 46.6091 89.6155 46.8575 89.9135 46.8575C90.1618 46.8575 90.2612 46.5098 90.2612 45.7149C90.2612 42.3367 90.4599 40.6973 90.4599 40.4489C90.4599 40.2005 90.3605 40.1011 89.9632 40.1011C89.5658 40.1011 89.1684 40.0515 88.2247 39.8527C86.9829 39.5547 85.5425 39.356 83.6053 39.356C77.2971 39.356 73.3235 42.9825 73.3235 48.2982C73.3235 51.6764 74.5156 54.7565 79.7807 59.0786L82.0158 60.9167C86.2875 64.444 87.728 66.4311 87.728 69.859C87.728 73.0385 85.3934 76.4663 80.6251 76.4663C77.2971 76.4663 74.0188 75.0753 73.2738 71.399C73.1248 70.7035 73.1248 70.008 73.1248 69.5609C73.1248 69.1635 73.0751 69.0144 72.7771 69.0144C72.5287 69.0144 72.4294 69.2628 72.3797 69.8093C72.33 70.6042 72.1314 72.5913 72.1314 75.0753C72.1314 76.4166 72.181 76.6154 72.8764 76.9631C74.9129 77.9567 77.1978 78.3045 79.5323 78.3045Z" fill="white"/>
<path d="M101.701 58.7805C101.701 67.7228 107.363 78.3045 120.973 78.3045C132.944 78.3045 140.792 69.1138 140.792 57.9857C140.792 46.4104 132.447 39.356 121.271 39.356C107.562 39.356 101.701 50.7325 101.701 58.7805ZM106.42 57.3895C106.42 46.5098 112.629 41.045 120.924 41.045C128.772 41.045 136.023 47.4537 136.023 59.3767C136.023 73.8333 126.785 76.4166 122.314 76.4166C113.374 76.4166 106.42 68.9648 106.42 57.3895Z" fill="white"/>
<path d="M154.986 47.0562C156.575 48.8447 162.188 55.1043 167.95 61.3142C173.215 66.9776 180.368 74.2804 180.914 74.7772C183.547 77.4102 184.143 77.9567 184.54 77.9567C184.888 77.9567 184.987 77.7083 184.987 74.4295L185.086 45.3175C185.086 42.3367 185.285 41.2438 186.924 40.896C187.52 40.747 187.868 40.747 188.116 40.747C188.464 40.747 188.663 40.5979 188.663 40.3992C188.663 40.1011 188.315 40.0515 187.769 40.0515C185.732 40.0515 184.093 40.2005 183.547 40.2005C183 40.2005 180.616 40.0515 178.381 40.0515C177.785 40.0515 177.387 40.1011 177.387 40.3992C177.387 40.5979 177.437 40.747 177.785 40.747C178.182 40.747 179.325 40.7967 180.219 40.9954C181.759 41.3928 182.106 42.4857 182.156 45.7149L182.702 70.9519C181.113 69.3125 175.699 63.2517 170.781 57.9857C163.132 49.7886 155.731 41.7902 154.986 40.9457C154.489 40.4489 153.645 39.356 153.248 39.356C152.85 39.356 152.701 39.9024 152.701 41.8399L152.651 70.3061C152.651 74.8269 152.403 76.2676 151.161 76.6154C150.416 76.8638 149.522 76.9134 149.125 76.9134C148.877 76.9134 148.727 77.0128 148.727 77.2115C148.727 77.5593 149.026 77.6089 149.522 77.6089C151.757 77.6089 153.844 77.4599 154.291 77.4599C154.738 77.4599 156.724 77.6089 159.556 77.6089C160.152 77.6089 160.45 77.5096 160.45 77.2115C160.45 77.0128 160.301 76.9134 160.052 76.9134C159.605 76.9134 158.513 76.8638 157.569 76.6154C156.228 76.2179 155.731 74.9263 155.632 70.8526L154.986 47.0562Z" fill="white"/>
</g>
<defs>
<clipPath id="clip0_5464_1285">
<rect width="189" height="78.3045" fill="white" transform="translate(0.5)"/>
</clipPath>
</defs>
</svg>
